<svg width="16" height="16" viewBox="0 0 16 16" fill="none" xmlns="http://www.w3.org/2000/svg">
<path d="M0.292983 8.70715C-0.0974857 8.31669 -0.0973479 7.68365 0.292983 7.29309C0.683421 6.90307 1.31563 6.90307 1.70607 7.29309L7.00001 12.588V0.999146C7.00041 0.447176 7.44795 0.00012207 8.00001 0.00012207C8.55199 0.00022051 8.99865 0.447236 8.99904 0.999146V12.587L14.293 7.29309C14.6835 6.90262 15.3165 6.90275 15.707 7.29309C16.0974 7.68364 16.0975 8.31667 15.707 8.70715L8.70705 15.7072C8.55395 15.8602 8.36349 15.9524 8.16505 15.9855C8.11132 15.9944 8.05629 16.0001 8.00001 16.0001C7.9165 16.0001 7.83536 15.9891 7.75783 15.9698C7.74123 15.9657 7.72444 15.9621 7.70802 15.9572C7.6941 15.9529 7.68066 15.9473 7.66701 15.9425C7.5896 15.9152 7.51444 15.879 7.44435 15.8322C7.38975 15.7956 7.33926 15.7534 7.29298 15.7072L0.292983 8.70715Z" fill="currentColor"/>
</svg>
