<svg width="16" height="16" viewBox="0 0 16 16" fill="none" xmlns="http://www.w3.org/2000/svg">
<path d="M7.29297 0.292945C7.68339 -0.0973132 8.31652 -0.0971695 8.70703 0.292945C9.09705 0.683383 9.09705 1.31657 8.70703 1.70701L3.41211 7.00095H15.001C15.5529 7.00134 15.9999 7.44798 16 7.99998C16 8.55204 15.5529 8.99958 15.001 8.99998H3.41309L8.70703 14.2929C9.0975 14.6834 9.09737 15.3165 8.70703 15.707C8.31649 16.0975 7.68351 16.0975 7.29297 15.707L0.292969 8.70798C0.255089 8.6701 0.221938 8.6289 0.191406 8.58689C0.183598 8.57615 0.175353 8.56572 0.167969 8.55466C0.119304 8.48174 0.0811669 8.40394 0.0537109 8.32322C0.0501615 8.31281 0.0461817 8.30252 0.0429688 8.29197C0.0378932 8.27525 0.0344544 8.2581 0.0302734 8.24119C0.0111421 8.16392 0 8.08317 0 7.99998C1.19474e-05 7.91673 0.0111091 7.83607 0.0302734 7.75877C0.0344657 7.74186 0.0378824 7.7247 0.0429688 7.70798C0.0461844 7.69743 0.0501588 7.68714 0.0537109 7.67673C0.0812144 7.59606 0.119273 7.51816 0.167969 7.44529C0.204609 7.39045 0.246493 7.3394 0.292969 7.29294L7.29297 0.292945Z" fill="currentColor"/>
</svg>
