<svg width="16" height="16" viewBox="0 0 16 16" fill="none" xmlns="http://www.w3.org/2000/svg">
<path d="M8.70703 0.293105C8.31656 -0.0973637 7.68352 -0.0972258 7.29297 0.293105C6.90295 0.683544 6.90295 1.31575 7.29297 1.70619L12.5879 7.00014H0.999023C0.447053 7.00053 0 7.44807 0 8.00014C9.84401e-05 8.55211 0.447114 8.99877 0.999023 8.99916H12.5869L7.29297 14.2931C6.9025 14.6836 6.90263 15.3166 7.29297 15.7072C7.68352 16.0975 8.31655 16.0977 8.70703 15.7072L15.707 8.70717C15.86 8.55408 15.9523 8.36361 15.9854 8.16518C15.9943 8.11144 16 8.05641 16 8.00014C16 7.91662 15.989 7.83548 15.9697 7.75795C15.9656 7.74135 15.962 7.72456 15.957 7.70814C15.9528 7.69422 15.9472 7.68079 15.9424 7.66713C15.9151 7.58972 15.8789 7.51457 15.832 7.44447C15.7955 7.38987 15.7533 7.33939 15.707 7.29311L8.70703 0.293105Z" fill="currentColor"/>
</svg>
