<svg width="16" height="16" viewBox="0 0 16 16" fill="none" xmlns="http://www.w3.org/2000/svg">
<path d="M0.292983 7.29309C-0.0974857 7.68356 -0.0973479 8.3166 0.292983 8.70715C0.683421 9.09717 1.31563 9.09717 1.70607 8.70715L7.00001 3.41223V15.0011C7.00041 15.5531 7.44795 16.0001 8.00001 16.0001C8.55199 16 8.99865 15.553 8.99904 15.0011V3.41321L14.293 8.70715C14.6835 9.09763 15.3165 9.0975 15.707 8.70715C16.0974 8.3166 16.0975 7.68357 15.707 7.29309L8.70705 0.293091C8.55395 0.140086 8.36349 0.0478024 8.16505 0.0147705C8.11132 0.0058344 8.05629 0.000132093 8.00001 0.00012207C7.9165 0.00012207 7.83536 0.011122 7.75783 0.0303955C7.74123 0.0345228 7.72444 0.0381014 7.70802 0.0430908C7.6941 0.0473281 7.68066 0.0529184 7.66701 0.0577393C7.5896 0.0850154 7.51444 0.121195 7.44435 0.168091C7.38975 0.204617 7.33926 0.246807 7.29298 0.293091L0.292983 7.29309Z" fill="currentColor"/>
</svg>
