<svg width="16" height="16" viewBox="0 0 16 16" fill="none" xmlns="http://www.w3.org/2000/svg">
    <g clip-path="url(#clip0_106_1299)">
        <path fill-rule="evenodd" clip-rule="evenodd" d="M8 7.08424C8.96835 7.08424 9.76326 7.83388 9.76337 8.77082C9.76337 9.70786 8.96841 10.4574 8 10.4574C7.03158 10.4574 6.23663 9.70786 6.23663 8.77082C6.23674 7.83388 7.03165 7.08424 8 7.08424ZM8 7.85506C7.46045 7.85506 7.0331 8.27072 7.03299 8.77082C7.03299 9.27101 7.46038 9.68659 8 9.68659C8.53962 9.68658 8.96701 9.27101 8.96701 8.77082C8.9669 8.27072 8.53955 7.85506 8 7.85506Z" fill="currentColor"/>
        <path fill-rule="evenodd" clip-rule="evenodd" d="M9.15757 4.00094L9.18506 4.00188L9.19359 4.00282C9.29543 4.01388 9.39019 4.06338 9.45715 4.14212L10.4867 5.35247H11.6794C12.0288 5.35259 12.3645 5.48807 12.6122 5.73082C12.8602 5.9738 13 6.30419 13 6.64847V10.704C12.9999 11.0481 12.8601 11.3778 12.6122 11.6207C12.3645 11.8635 12.0288 11.9999 11.6794 12H4.32063C3.97119 11.9999 3.63554 11.8635 3.38775 11.6207C3.13991 11.3778 3.0001 11.0481 3 10.704V6.64847C3 6.30419 3.13978 5.9738 3.38775 5.73082C3.63553 5.48807 3.97122 5.35259 4.32063 5.35247H5.51327L6.54285 4.14212C6.6193 4.05223 6.73191 4.00009 6.85002 4L9.15757 4.00094ZM6.00815 6C5.9317 6.0899 5.81911 6.14203 5.70099 6.14212H4.32063C4.18267 6.14224 4.05075 6.19577 3.95374 6.29082C3.85667 6.38594 3.80205 6.51482 3.80205 6.64847V10.704C3.80215 10.8375 3.85683 10.9657 3.95374 11.0607C4.05076 11.1558 4.18266 11.2102 4.32063 11.2104H11.6794C11.8173 11.2102 11.9492 11.1558 12.0463 11.0607C12.1432 10.9657 12.1978 10.8375 12.198 10.704V6.64847C12.198 6.51482 12.1433 6.38594 12.0463 6.29082C11.9492 6.19577 11.8173 6.14224 11.6794 6.14212H10.299C10.1809 6.14203 10.0683 6.0899 9.99185 6L8.96227 4.78965H7.03773L6.00815 6Z" fill="currentColor"/>
        <path d="M0 5.90039V0.400391C0 0.179477 0.179477 0 0.400391 0H5.40039C5.6213 0 5.80078 0.179477 5.80078 0.400391C5.80078 0.621305 5.6213 0.800781 5.40039 0.800781H0.800781V5.90039C0.800781 6.1213 0.621305 6.30078 0.400391 6.30078C0.179477 6.30078 0 6.1213 0 5.90039Z" fill="currentColor"/>
        <path d="M16 10.0996V15.5996C16 15.8205 15.8205 16 15.5996 16H10.5996C10.3787 16 10.1992 15.8205 10.1992 15.5996C10.1992 15.3787 10.3787 15.1992 10.5996 15.1992H15.1992V10.0996C15.1992 9.8787 15.3787 9.69922 15.5996 9.69922C15.8205 9.69922 16 9.8787 16 10.0996Z" fill="currentColor"/>
        <path d="M0 10.0996V15.5996C0 15.8205 0.179477 16 0.400391 16H5.40039C5.6213 16 5.80078 15.8205 5.80078 15.5996C5.80078 15.3787 5.6213 15.1992 5.40039 15.1992H0.800781V10.0996C0.800781 9.8787 0.621305 9.69922 0.400391 9.69922C0.179477 9.69922 0 9.8787 0 10.0996Z" fill="currentColor"/>
        <path d="M16 5.90039V0.400391C16 0.179477 15.8205 0 15.5996 0H10.5996C10.3787 0 10.1992 0.179477 10.1992 0.400391C10.1992 0.621305 10.3787 0.800781 10.5996 0.800781H15.1992V5.90039C15.1992 6.1213 15.3787 6.30078 15.5996 6.30078C15.8205 6.30078 16 6.1213 16 5.90039Z" fill="currentColor"/>
    </g>
    <defs>
        <clipPath id="clip0_106_1299">
            <rect width="16" height="16" fill="white"/>
        </clipPath>
    </defs>
</svg>
