<svg width="12" height="12" viewBox="0 0 12 12" fill="none" xmlns="http://www.w3.org/2000/svg">
<path d="M10 6.5C10 9 8.25 10.25 6.17 10.975C6.06108 11.0119 5.94277 11.0101 5.835 10.97C3.75 10.25 2 9 2 6.5V3C2 2.8674 2.05268 2.74022 2.14645 2.64645C2.24021 2.55268 2.36739 2.5 2.5 2.5C3.5 2.5 4.75 1.9 5.62 1.14C5.72593 1.0495 5.86068 0.999779 6 0.999779C6.13932 0.999779 6.27407 1.0495 6.38 1.14C7.255 1.905 8.5 2.5 9.5 2.5C9.63261 2.5 9.75979 2.55268 9.85355 2.64645C9.94732 2.74022 10 2.8674 10 3V6.5Z" stroke="black" stroke-linecap="round" stroke-linejoin="round"/>
<path d="M6 4V6" stroke="black" stroke-linecap="round" stroke-linejoin="round"/>
<path d="M6 8H6.005" stroke="black" stroke-linecap="round" stroke-linejoin="round"/>
</svg>
