<svg width="16" height="16" viewBox="0 0 16 16" fill="none" xmlns="http://www.w3.org/2000/svg">
    <path d="M14.2425 10.1679C14.2424 10.0892 14.2113 10.0139 14.1557 9.95821L13.0832 8.88574C13.0274 8.82992 12.9516 8.79799 12.8726 8.79799C12.7938 8.79806 12.7178 8.82999 12.662 8.88574L12.4699 9.07696C12.4673 9.07964 12.4651 9.08266 12.4625 9.08527L9.08621 12.4606C9.08316 12.4638 9.08013 12.4669 9.07697 12.4699L8.88576 12.662C8.83 12.7178 8.79808 12.7938 8.798 12.8726C8.798 12.9516 8.82994 13.0274 8.88576 13.0832L9.95822 14.1557C10.0139 14.2113 10.0892 14.2424 10.1679 14.2425C10.2468 14.2425 10.3227 14.2114 10.3785 14.1557L14.1557 10.3785C14.2114 10.3227 14.2425 10.2468 14.2425 10.1679ZM8.43775 7.4641C8.43775 6.92633 8.00185 6.48974 7.46412 6.48955C6.92624 6.48955 6.48958 6.92622 6.48958 7.4641C6.48976 8.00183 6.92636 8.43773 7.46412 8.43773C8.00174 8.43755 8.43756 8.00172 8.43775 7.4641ZM15 10.1679C15 10.4475 14.8882 10.7165 14.6905 10.9143L10.9143 14.6905C10.7165 14.8882 10.4475 15 10.1679 15C9.88845 14.9999 9.6201 14.8881 9.42245 14.6905L8.34999 13.6181C8.15253 13.4204 8.04146 13.1521 8.04146 12.8726C8.0415 12.7241 8.07384 12.5791 8.13291 12.4458L4.09432 11.6385C3.8971 11.5991 3.71462 11.5035 3.56963 11.3641C3.42642 11.2264 3.32557 11.0507 3.27773 10.8579V10.8589L1.03119 2.30962L1.02934 2.30223C0.986949 2.12667 0.990625 1.94309 1.03951 1.76923C1.08842 1.59526 1.18146 1.43698 1.30924 1.3092C1.43702 1.18142 1.59529 1.08838 1.76926 1.03947C1.89963 1.00282 2.03544 0.991591 2.16924 1.00621L2.30226 1.02931L2.30965 1.03116L10.8589 3.2777H10.8579C11.0507 3.32554 11.2264 3.42639 11.3642 3.5696C11.5035 3.71459 11.5991 3.89707 11.6385 4.09429L12.4459 8.13289C12.5791 8.07382 12.7241 8.04148 12.8726 8.04144C13.1521 8.04144 13.4204 8.15252 13.6181 8.34997L14.6905 9.42244C14.8881 9.62008 14.9999 9.88844 15 10.1679ZM9.19429 7.4641C9.19411 8.41965 8.41967 9.19409 7.46412 9.19427C6.50843 9.19427 5.73321 8.41976 5.73303 7.4641C5.73303 7.12319 5.83257 6.80551 6.00276 6.53759L1.82746 2.36227L4.00933 10.6667L4.01118 10.6741C4.02452 10.7293 4.05341 10.7798 4.09432 10.8191C4.13514 10.8583 4.18663 10.8846 4.24211 10.8958L8.69085 11.7854L11.7854 8.69083L10.8958 4.24209C10.8846 4.1866 10.8584 4.13511 10.8191 4.09429C10.7798 4.05338 10.7293 4.02449 10.6741 4.01115L10.6667 4.0093L2.3623 1.82742L6.53761 6.00274C6.80553 5.83254 7.12321 5.73301 7.46412 5.73301C8.41978 5.73319 9.19429 6.5084 9.19429 7.4641Z" fill="currentColor"/>
</svg>