<svg width="16" height="16" viewBox="0 0 16 16" fill="none" xmlns="http://www.w3.org/2000/svg">
<path d="M8 0C12.4183 0 16 3.58172 16 8C16 12.4183 12.4183 16 8 16C3.58172 16 0 12.4183 0 8C3.11198e-07 3.58172 3.58172 3.11189e-07 8 0ZM0.920401 8.45283C1.13167 11.8064 3.67254 14.5269 6.9434 15.0153C5.47727 13.1385 4.63274 10.8435 4.53774 8.45283H0.920401ZM11.4623 8.45283C11.3673 10.8437 10.5223 13.1384 9.05601 15.0153C12.3271 14.5271 14.8683 11.8066 15.0796 8.45283H11.4623ZM5.44458 8.45283C5.54681 10.8206 6.44748 13.0841 8 14.8738C9.55252 13.0841 10.4532 10.8206 10.5554 8.45283H5.44458ZM9.05601 0.98408C10.5225 2.86105 11.3673 5.15618 11.4623 7.54717H15.0796C14.8683 4.19335 12.3272 1.47228 9.05601 0.98408ZM8 1.12559C6.4473 2.91535 5.54681 5.1793 5.44458 7.54717H10.5554C10.4532 5.1793 9.5527 2.91535 8 1.12559ZM6.9434 0.98408C3.6725 1.47251 1.13167 4.19354 0.920401 7.54717H4.53774C4.63274 5.1563 5.47709 2.861 6.9434 0.98408Z" fill="currentColor"/>
</svg>
