<svg width="16" height="16" viewBox="0 0 16 16" fill="none" xmlns="http://www.w3.org/2000/svg">
    <g clip-path="url(#clip0_106_1308)">
        <path d="M15.1582 8C15.1582 4.04672 11.9533 0.841794 8 0.841794C4.04672 0.841794 0.841794 4.04672 0.841794 8C0.841794 11.9533 4.04672 15.1582 8 15.1582C11.9533 15.1582 15.1582 11.9533 15.1582 8ZM16 8C16 12.4184 12.4184 16 8 16C3.58163 16 2.60426e-07 12.4184 0 8C0 3.58163 3.58163 0 8 0C12.4184 2.60443e-07 16 3.58163 16 8Z" fill="currentColor"/>
        <path d="M7.5791 11.0316V7.99994C7.5791 7.76739 7.76745 7.57904 8 7.57904C8.23254 7.57904 8.4209 7.76739 8.4209 7.99994V11.0316C8.4209 11.2641 8.23254 11.4525 8 11.4525C7.76745 11.4525 7.5791 11.2641 7.5791 11.0316Z" fill="currentColor"/>
        <path d="M8.0074 4.54749C8.23995 4.54749 8.42879 4.73584 8.42879 4.96838C8.42879 5.20093 8.23995 5.38928 8.0074 5.38928H8C7.76745 5.38928 7.5791 5.20093 7.5791 4.96838C7.5791 4.73584 7.76745 4.54749 8 4.54749H8.0074Z" fill="currentColor"/>
    </g>
    <defs>
        <clipPath id="clip0_106_1308">
            <rect width="16" height="16" fill="white"/>
        </clipPath>
    </defs>
</svg>
