<svg width="16" height="16" viewBox="0 0 16 16" fill="none" xmlns="http://www.w3.org/2000/svg">
    <g clip-path="url(#clip0_106_1314)">
        <path d="M15.07 2.13939C15.07 1.4715 14.5284 0.929883 13.8605 0.929883H2.13939C1.4715 0.929883 0.929883 1.4715 0.929883 2.13939V13.8605C0.929883 14.5284 1.4715 15.07 2.13939 15.07H13.8605C14.5284 15.07 15.07 14.5284 15.07 13.8605V2.13939ZM15.9999 13.8605C15.9999 15.0421 15.0421 15.9999 13.8605 15.9999H2.13939C0.957735 15.9999 0 15.0421 0 13.8605V2.13939C0 0.957735 0.957735 0 2.13939 0H13.8605C15.0421 0 15.9999 0.957735 15.9999 2.13939V13.8605Z" fill="currentColor"/>
        <path d="M6.6978 5.48832C6.6978 4.82043 6.15618 4.27882 5.48829 4.27882C4.8204 4.27882 4.27879 4.82043 4.27879 5.48832C4.27879 6.15621 4.8204 6.69783 5.48829 6.69783C6.15618 6.69783 6.6978 6.15621 6.6978 5.48832ZM7.62768 5.48832C7.62768 6.66997 6.66994 7.62771 5.48829 7.62771C4.30664 7.62771 3.34891 6.66997 3.34891 5.48832C3.34891 4.30667 4.30664 3.34894 5.48829 3.34894C6.66994 3.34894 7.62768 4.30667 7.62768 5.48832Z" fill="currentColor"/>
        <path d="M11.7675 6.97278C12.3348 6.97278 12.8788 7.19798 13.28 7.59906L15.8636 10.1827C16.0453 10.3643 16.0453 10.6589 15.8636 10.8406C15.682 11.022 15.3879 11.022 15.2063 10.8406L12.6227 8.25695C12.3959 8.03024 12.0881 7.90266 11.7675 7.90266C11.4468 7.90266 11.139 8.03024 10.9122 8.25695L3.3053 15.8639C3.12369 16.0454 2.82956 16.0454 2.64795 15.8639C2.46631 15.6823 2.46631 15.3876 2.64795 15.206L10.2549 7.59906L10.3318 7.52602C10.7242 7.17076 11.2356 6.97278 11.7675 6.97278Z" fill="currentColor"/>
    </g>
    <defs>
        <clipPath id="clip0_106_1314">
            <rect width="16" height="16" fill="white"/>
        </clipPath>
    </defs>
</svg>
