<svg width="16" height="16" viewBox="0 0 16 16" fill="none" xmlns="http://www.w3.org/2000/svg">
<g clip-path="url(#clip0_106_1740)">
<path d="M15.0004 7.20018C15.5525 7.20039 16 7.64764 16 8.19981C16 8.75198 15.5525 9.19923 15.0004 9.19944H0.999634C0.447336 9.19944 0 8.75211 0 8.19981C0 7.64751 0.447336 7.20018 0.999634 7.20018H15.0004Z" fill="currentColor"/>
<path d="M7.20018 15.0004V0.999634C7.20018 0.447336 7.64751 0 8.19981 0C8.75211 0 9.19944 0.447336 9.19944 0.999634V15.0004C9.19923 15.5525 8.75198 16 8.19981 16C7.64764 16 7.20039 15.5525 7.20018 15.0004Z" fill="currentColor"/>
</g>
<defs>
<clipPath id="clip0_106_1740">
<rect width="16" height="16" fill="white"/>
</clipPath>
</defs>
</svg>
