<svg width="16" height="16" viewBox="0 0 16 16" fill="none" xmlns="http://www.w3.org/2000/svg">
<path fill-rule="evenodd" clip-rule="evenodd" d="M5.09115 0.5C6.05546 0.5 6.98091 0.895461 7.66283 1.59858C7.78506 1.72464 7.89693 1.8597 7.99947 2.00066C8.10218 1.85938 8.21575 1.72491 8.33824 1.59858C9.01999 0.895645 9.94478 0.500205 10.9088 0.5H14.5458C14.9312 0.500099 15.3012 0.658421 15.5739 0.939432C15.8464 1.22058 16 1.60268 16 2.00066V11.7495C16 12.1474 15.8465 12.5295 15.5739 12.8107C15.3011 13.0919 14.9311 13.25 14.5458 13.2501H10.1823C9.79667 13.2502 9.42588 13.4083 9.15321 13.6895C8.88577 13.9656 8.73369 14.3382 8.72814 14.7277V14.7497C8.72811 14.8371 8.71015 14.9199 8.6834 14.9979C8.64696 15.1047 8.59101 15.2018 8.51508 15.2803C8.41642 15.382 8.28937 15.4546 8.14755 15.4846L8.00053 15.5C7.95386 15.5 7.9084 15.4944 7.86417 15.4857C7.84747 15.4824 7.83144 15.477 7.81517 15.4725C7.78598 15.4646 7.75758 15.4555 7.72994 15.444C7.71615 15.4383 7.70282 15.4318 7.68946 15.4253C7.66303 15.4123 7.63731 15.3985 7.61276 15.3825C7.59763 15.3726 7.58343 15.3616 7.56908 15.3506C7.54914 15.3353 7.52986 15.3195 7.51155 15.3023C7.49686 15.2884 7.48249 15.2744 7.46894 15.2594C7.44964 15.238 7.43247 15.2149 7.41567 15.1913C7.40755 15.1799 7.39867 15.1691 7.39117 15.1572C7.36819 15.1208 7.34815 15.0823 7.33151 15.0419C7.33046 15.0393 7.32935 15.0368 7.32832 15.0342C7.31135 14.9916 7.29701 14.9474 7.28784 14.9013L7.27292 14.7497L7.26546 14.6014C7.23239 14.2582 7.08535 13.9357 6.84679 13.6895C6.57413 13.4084 6.20432 13.2502 5.81876 13.2501H1.45522C1.06977 13.25 0.698922 13.0921 0.426127 12.8107C0.153383 12.5294 0 12.1471 0 11.7495V2.00066C0 1.60296 0.153449 1.22072 0.426127 0.939432C0.698808 0.658237 1.06959 0.5001 1.45522 0.5H5.09115ZM1.45522 11.7495H5.81876C6.33404 11.7495 6.83421 11.8935 7.27292 12.1548V4.25055C7.27292 3.65392 7.04278 3.08173 6.63373 2.65981C6.2246 2.23799 5.6697 2.00066 5.09115 2.00066H1.45522V11.7495ZM10.9088 2.00066C10.3304 2.00086 9.77525 2.23805 9.36627 2.65981C9.00862 3.02888 8.78734 3.51283 8.73773 4.02754L8.72708 4.24286C8.7271 4.24531 8.72814 4.24809 8.72814 4.25055V12.1548C9.16689 11.8933 9.66692 11.7495 10.1823 11.7495H14.5448L14.5458 11.7505V2.00066H10.9088Z" fill="currentColor"/>
</svg>
