<svg width="16" height="16" viewBox="0 0 16 16" fill="none" xmlns="http://www.w3.org/2000/svg">
    <path d="M14 3.61133C14.2148 3.61133 14.3887 3.78522 14.3887 4C14.3887 4.21478 14.2148 4.38867 14 4.38867H2C1.78522 4.38867 1.61133 4.21478 1.61133 4C1.61133 3.78522 1.78522 3.61133 2 3.61133H14Z" fill="currentColor"/>
    <path d="M2.94467 13.3333V4C2.94467 3.78522 3.11857 3.61133 3.33334 3.61133C3.54812 3.61133 3.72202 3.78522 3.72202 4V13.3333C3.72202 13.5402 3.82933 13.7798 4.02475 13.9753C4.22017 14.1707 4.45982 14.278 4.66668 14.278H11.3333C11.5402 14.278 11.7798 14.1707 11.9753 13.9753C12.1707 13.7798 12.278 13.5402 12.278 13.3333V4C12.278 3.78522 12.4519 3.61133 12.6667 3.61133C12.8815 3.61133 13.0553 3.78522 13.0553 4V13.3333C13.0553 13.7931 12.8293 14.2202 12.5247 14.5247C12.2202 14.8293 11.7932 15.0553 11.3333 15.0553H4.66668C4.20686 15.0553 3.77985 14.8293 3.47527 14.5247C3.17069 14.2202 2.94467 13.7931 2.94467 13.3333Z" fill="currentColor"/>
    <path d="M10.278 3.99998V2.66665C10.278 2.45979 10.1707 2.22014 9.97527 2.02472C9.77985 1.8293 9.5402 1.72198 9.33334 1.72198H6.66668C6.45982 1.72198 6.22017 1.8293 6.02475 2.02472C5.82933 2.22014 5.72202 2.45979 5.72202 2.66665V3.99998C5.72202 4.21476 5.54812 4.38865 5.33334 4.38865C5.11857 4.38865 4.94467 4.21476 4.94467 3.99998V2.66665C4.94467 2.20683 5.17069 1.77982 5.47527 1.47524C5.77985 1.17066 6.20686 0.944641 6.66668 0.944641H9.33334C9.79316 0.944641 10.2202 1.17066 10.5247 1.47524C10.8293 1.77982 11.0553 2.20683 11.0553 2.66665V3.99998C11.0553 4.21476 10.8815 4.38865 10.6667 4.38865C10.4519 4.38865 10.278 4.21476 10.278 3.99998Z" fill="currentColor"/>
    <path d="M6.27798 11.3333V7.33331C6.27798 7.11854 6.45188 6.94464 6.66666 6.94464C6.88143 6.94464 7.05533 7.11854 7.05533 7.33331V11.3333C7.05533 11.5481 6.88143 11.722 6.66666 11.722C6.45188 11.722 6.27798 11.5481 6.27798 11.3333Z" fill="currentColor"/>
    <path d="M8.94467 11.3333V7.33331C8.94467 7.11854 9.11857 6.94464 9.33334 6.94464C9.54812 6.94464 9.72202 7.11854 9.72202 7.33331V11.3333C9.72202 11.5481 9.54812 11.722 9.33334 11.722C9.11857 11.722 8.94467 11.5481 8.94467 11.3333Z" fill="currentColor"/>
</svg>
